<?xml version="1.0" encoding="UTF-8" standalone="no"?>
<svg
   xmlns:dc="http://purl.org/dc/elements/1.1/"
   xmlns:cc="http://creativecommons.org/ns#"
   xmlns:rdf="http://www.w3.org/1999/02/22-rdf-syntax-ns#"
   xmlns:svg="http://www.w3.org/2000/svg"
   xmlns="http://www.w3.org/2000/svg"
   id="svg324"
   version="1.1"
   viewBox="0 0 279.4 215.9"
   height="8.5in"
   width="11in">
  <defs
     id="defs318" />
  <metadata
     id="metadata321">
    <rdf:RDF>
      <cc:Work
         rdf:about="">
        <dc:format>image/svg+xml</dc:format>
        <dc:type
           rdf:resource="http://purl.org/dc/dcmitype/StillImage" />
        <dc:title></dc:title>
      </cc:Work>
    </rdf:RDF>
  </metadata>
  <g
     transform="translate(0,-81.1)"
     id="layer1">
    <g
       transform="translate(-13.616915,362.09071)"
       id="g439">
      <rect
         transform="matrix(0.814667,0,0,-0.814667,45,-245)"
         style="fill:#000000;stroke:none"
         x="-15"
         y="-15"
         width="30"
         height="30"
         id="rect326" />
      <rect
         transform="matrix(0.814667,0,0,-0.814667,93.880005,-245)"
         style="fill:#000000;stroke:none"
         x="-15"
         y="-15"
         width="30"
         height="30"
         id="rect328" />
      <rect
         transform="matrix(0.814667,0,0,-0.814667,142.76001,-245)"
         style="fill:#000000;stroke:none"
         x="-15"
         y="-15"
         width="30"
         height="30"
         id="rect330" />
      <rect
         transform="matrix(0.814667,0,0,-0.814667,191.64001,-245)"
         style="fill:#000000;stroke:none"
         x="-15"
         y="-15"
         width="30"
         height="30"
         id="rect332" />
      <rect
         transform="matrix(0.814667,0,0,-0.814667,240.52002,-245)"
         style="fill:#000000;stroke:none"
         x="-15"
         y="-15"
         width="30"
         height="30"
         id="rect334" />
      <rect
         transform="matrix(0.814667,0,0,-0.814667,45,-196.11999)"
         style="fill:#000000;stroke:none"
         x="-15"
         y="-15"
         width="30"
         height="30"
         id="rect336" />
      <rect
         transform="matrix(0.814667,0,0,-0.814667,69.440002,-220.56)"
         style="fill:#000000;stroke:none"
         x="-15"
         y="-15"
         width="30"
         height="30"
         id="rect338" />
      <rect
         transform="matrix(0.814667,0,0,-0.814667,93.880005,-196.11999)"
         style="fill:#000000;stroke:none"
         x="-15"
         y="-15"
         width="30"
         height="30"
         id="rect340" />
      <rect
         transform="matrix(0.814667,0,0,-0.814667,118.32001,-220.56)"
         style="fill:#000000;stroke:none"
         x="-15"
         y="-15"
         width="30"
         height="30"
         id="rect342" />
      <rect
         transform="matrix(0.814667,0,0,-0.814667,142.76001,-196.11999)"
         style="fill:#000000;stroke:none"
         x="-15"
         y="-15"
         width="30"
         height="30"
         id="rect344" />
      <rect
         transform="matrix(0.814667,0,0,-0.814667,167.20001,-220.56)"
         style="fill:#000000;stroke:none"
         x="-15"
         y="-15"
         width="30"
         height="30"
         id="rect346" />
      <rect
         transform="matrix(0.814667,0,0,-0.814667,191.64001,-196.11999)"
         style="fill:#000000;stroke:none"
         x="-15"
         y="-15"
         width="30"
         height="30"
         id="rect348" />
      <rect
         transform="matrix(0.814667,0,0,-0.814667,216.08002,-220.56)"
         style="fill:#000000;stroke:none"
         x="-15"
         y="-15"
         width="30"
         height="30"
         id="rect350" />
      <rect
         transform="matrix(0.814667,0,0,-0.814667,240.52002,-196.11999)"
         style="fill:#000000;stroke:none"
         x="-15"
         y="-15"
         width="30"
         height="30"
         id="rect352" />
      <rect
         transform="matrix(0.814667,0,0,-0.814667,264.96002,-220.56)"
         style="fill:#000000;stroke:none"
         x="-15"
         y="-15"
         width="30"
         height="30"
         id="rect354" />
      <rect
         transform="matrix(0.814667,0,0,-0.814667,45,-147.23999)"
         style="fill:#000000;stroke:none"
         x="-15"
         y="-15"
         width="30"
         height="30"
         id="rect356" />
      <rect
         transform="matrix(0.814667,0,0,-0.814667,69.440002,-171.67999)"
         style="fill:#000000;stroke:none"
         x="-15"
         y="-15"
         width="30"
         height="30"
         id="rect358" />
      <rect
         transform="matrix(0.814667,0,0,-0.814667,93.880005,-147.23999)"
         style="fill:#000000;stroke:none"
         x="-15"
         y="-15"
         width="30"
         height="30"
         id="rect360" />
      <rect
         transform="matrix(0.814667,0,0,-0.814667,118.32001,-171.67999)"
         style="fill:#000000;stroke:none"
         x="-15"
         y="-15"
         width="30"
         height="30"
         id="rect362" />
      <rect
         transform="matrix(0.814667,0,0,-0.814667,142.76001,-147.23999)"
         style="fill:#000000;stroke:none"
         x="-15"
         y="-15"
         width="30"
         height="30"
         id="rect364" />
      <rect
         transform="matrix(0.814667,0,0,-0.814667,167.20001,-171.67999)"
         style="fill:#000000;stroke:none"
         x="-15"
         y="-15"
         width="30"
         height="30"
         id="rect366" />
      <rect
         transform="matrix(0.814667,0,0,-0.814667,191.64001,-147.23999)"
         style="fill:#000000;stroke:none"
         x="-15"
         y="-15"
         width="30"
         height="30"
         id="rect368" />
      <rect
         transform="matrix(0.814667,0,0,-0.814667,216.08002,-171.67999)"
         style="fill:#000000;stroke:none"
         x="-15"
         y="-15"
         width="30"
         height="30"
         id="rect370" />
      <rect
         transform="matrix(0.814667,0,0,-0.814667,240.52002,-147.23999)"
         style="fill:#000000;stroke:none"
         x="-15"
         y="-15"
         width="30"
         height="30"
         id="rect372" />
      <rect
         transform="matrix(0.814667,0,0,-0.814667,264.96002,-171.67999)"
         style="fill:#000000;stroke:none"
         x="-15"
         y="-15"
         width="30"
         height="30"
         id="rect374" />
      <rect
         transform="matrix(0.814667,0,0,-0.814667,45,-98.359985)"
         style="fill:#000000;stroke:none"
         x="-15"
         y="-15"
         width="30"
         height="30"
         id="rect376" />
      <rect
         transform="matrix(0.814667,0,0,-0.814667,69.440002,-122.79999)"
         style="fill:#000000;stroke:none"
         x="-15"
         y="-15"
         width="30"
         height="30"
         id="rect378" />
      <rect
         transform="matrix(0.814667,0,0,-0.814667,93.880005,-98.359985)"
         style="fill:#000000;stroke:none"
         x="-15"
         y="-15"
         width="30"
         height="30"
         id="rect380" />
      <rect
         transform="matrix(0.814667,0,0,-0.814667,118.32001,-122.79999)"
         style="fill:#000000;stroke:none"
         x="-15"
         y="-15"
         width="30"
         height="30"
         id="rect382" />
      <rect
         transform="matrix(0.814667,0,0,-0.814667,142.76001,-98.359985)"
         style="fill:#000000;stroke:none"
         x="-15"
         y="-15"
         width="30"
         height="30"
         id="rect384" />
      <rect
         transform="matrix(0.814667,0,0,-0.814667,167.20001,-122.79999)"
         style="fill:#000000;stroke:none"
         x="-15"
         y="-15"
         width="30"
         height="30"
         id="rect386" />
      <rect
         transform="matrix(0.814667,0,0,-0.814667,191.64001,-98.359985)"
         style="fill:#000000;stroke:none"
         x="-15"
         y="-15"
         width="30"
         height="30"
         id="rect388" />
      <rect
         transform="matrix(0.814667,0,0,-0.814667,216.08002,-122.79999)"
         style="fill:#000000;stroke:none"
         x="-15"
         y="-15"
         width="30"
         height="30"
         id="rect390" />
      <rect
         transform="matrix(0.814667,0,0,-0.814667,240.52002,-98.359985)"
         style="fill:#000000;stroke:none"
         x="-15"
         y="-15"
         width="30"
         height="30"
         id="rect392" />
      <rect
         transform="matrix(0.814667,0,0,-0.814667,264.96002,-122.79999)"
         style="fill:#000000;stroke:none"
         x="-15"
         y="-15"
         width="30"
         height="30"
         id="rect394" />
    </g>
  </g>
</svg>
