<?xml version="1.0" encoding="UTF-8" standalone="no"?>
<svg
   xmlns:dc="http://purl.org/dc/elements/1.1/"
   xmlns:cc="http://creativecommons.org/ns#"
   xmlns:rdf="http://www.w3.org/1999/02/22-rdf-syntax-ns#"
   xmlns:svg="http://www.w3.org/2000/svg"
   xmlns="http://www.w3.org/2000/svg"
   id="svg8"
   version="1.1"
   viewBox="0 0 148 105"
   height="105mm"
   width="148mm">
  <defs
     id="defs2" />
  <metadata
     id="metadata5">
    <rdf:RDF>
      <cc:Work
         rdf:about="">
        <dc:format>image/svg+xml</dc:format>
        <dc:type
           rdf:resource="http://purl.org/dc/dcmitype/StillImage" />
        <dc:title></dc:title>
      </cc:Work>
    </rdf:RDF>
  </metadata>
  <g
     transform="translate(0,-192)"
     id="layer1">
    <g
       transform="translate(-37.629993,465.64971)"
       id="g316">
      <circle
         cy="0"
         cx="0"
         transform="matrix(0.45,0,0,-0.45,58,-248)"
         style="fill:#000000;stroke:none"
         r="10"
         id="circle176" />
      <circle
         cy="0"
         cx="0"
         transform="matrix(0.45,0,0,-0.45,69,-259)"
         style="fill:#000000;stroke:none"
         r="10"
         id="circle178" />
      <circle
         cy="0"
         cx="0"
         transform="matrix(0.45,0,0,-0.45,80,-248)"
         style="fill:#000000;stroke:none"
         r="10"
         id="circle180" />
      <circle
         cy="0"
         cx="0"
         transform="matrix(0.45,0,0,-0.45,91,-259)"
         style="fill:#000000;stroke:none"
         r="10"
         id="circle182" />
      <circle
         cy="0"
         cx="0"
         transform="matrix(0.45,0,0,-0.45,102,-248)"
         style="fill:#000000;stroke:none"
         r="10"
         id="circle184" />
      <circle
         cy="0"
         cx="0"
         transform="matrix(0.45,0,0,-0.45,113,-259)"
         style="fill:#000000;stroke:none"
         r="10"
         id="circle186" />
      <circle
         cy="0"
         cx="0"
         transform="matrix(0.45,0,0,-0.45,124,-248)"
         style="fill:#000000;stroke:none"
         r="10"
         id="circle188" />
      <circle
         cy="0"
         cx="0"
         transform="matrix(0.45,0,0,-0.45,135,-259)"
         style="fill:#000000;stroke:none"
         r="10"
         id="circle190" />
      <circle
         cy="0"
         cx="0"
         transform="matrix(0.45,0,0,-0.45,146,-248)"
         style="fill:#000000;stroke:none"
         r="10"
         id="circle192" />
      <circle
         cy="0"
         cx="0"
         transform="matrix(0.45,0,0,-0.45,157,-259)"
         style="fill:#000000;stroke:none"
         r="10"
         id="circle194" />
      <circle
         cy="0"
         cx="0"
         transform="matrix(0.45,0,0,-0.45,168,-248)"
         style="fill:#000000;stroke:none"
         r="10"
         id="circle196" />
      <circle
         cy="0"
         cx="0"
         transform="matrix(0.45,0,0,-0.45,58,-226)"
         style="fill:#000000;stroke:none"
         r="10"
         id="circle198" />
      <circle
         cy="0"
         cx="0"
         transform="matrix(0.45,0,0,-0.45,69,-237)"
         style="fill:#000000;stroke:none"
         r="10"
         id="circle200" />
      <circle
         cy="0"
         cx="0"
         transform="matrix(0.45,0,0,-0.45,80,-226)"
         style="fill:#000000;stroke:none"
         r="10"
         id="circle202" />
      <circle
         cy="0"
         cx="0"
         transform="matrix(0.45,0,0,-0.45,91,-237)"
         style="fill:#000000;stroke:none"
         r="10"
         id="circle204" />
      <circle
         cy="0"
         cx="0"
         transform="matrix(0.45,0,0,-0.45,102,-226)"
         style="fill:#000000;stroke:none"
         r="10"
         id="circle206" />
      <circle
         cy="0"
         cx="0"
         transform="matrix(0.45,0,0,-0.45,113,-237)"
         style="fill:#000000;stroke:none"
         r="10"
         id="circle208" />
      <circle
         cy="0"
         cx="0"
         transform="matrix(0.45,0,0,-0.45,124,-226)"
         style="fill:#000000;stroke:none"
         r="10"
         id="circle210" />
      <circle
         cy="0"
         cx="0"
         transform="matrix(0.45,0,0,-0.45,135,-237)"
         style="fill:#000000;stroke:none"
         r="10"
         id="circle212" />
      <circle
         cy="0"
         cx="0"
         transform="matrix(0.45,0,0,-0.45,146,-226)"
         style="fill:#000000;stroke:none"
         r="10"
         id="circle214" />
      <circle
         cy="0"
         cx="0"
         transform="matrix(0.45,0,0,-0.45,157,-237)"
         style="fill:#000000;stroke:none"
         r="10"
         id="circle216" />
      <circle
         cy="0"
         cx="0"
         transform="matrix(0.45,0,0,-0.45,168,-226)"
         style="fill:#000000;stroke:none"
         r="10"
         id="circle218" />
      <circle
         cy="0"
         cx="0"
         transform="matrix(0.45,0,0,-0.45,58,-204)"
         style="fill:#000000;stroke:none"
         r="10"
         id="circle220" />
      <circle
         cy="0"
         cx="0"
         transform="matrix(0.45,0,0,-0.45,69,-215)"
         style="fill:#000000;stroke:none"
         r="10"
         id="circle222" />
      <circle
         cy="0"
         cx="0"
         transform="matrix(0.45,0,0,-0.45,80,-204)"
         style="fill:#000000;stroke:none"
         r="10"
         id="circle224" />
      <circle
         cy="0"
         cx="0"
         transform="matrix(0.45,0,0,-0.45,91,-215)"
         style="fill:#000000;stroke:none"
         r="10"
         id="circle226" />
      <circle
         cy="0"
         cx="0"
         transform="matrix(0.45,0,0,-0.45,102,-204)"
         style="fill:#000000;stroke:none"
         r="10"
         id="circle228" />
      <circle
         cy="0"
         cx="0"
         transform="matrix(0.45,0,0,-0.45,113,-215)"
         style="fill:#000000;stroke:none"
         r="10"
         id="circle230" />
      <circle
         cy="0"
         cx="0"
         transform="matrix(0.45,0,0,-0.45,124,-204)"
         style="fill:#000000;stroke:none"
         r="10"
         id="circle232" />
      <circle
         cy="0"
         cx="0"
         transform="matrix(0.45,0,0,-0.45,135,-215)"
         style="fill:#000000;stroke:none"
         r="10"
         id="circle234" />
      <circle
         cy="0"
         cx="0"
         transform="matrix(0.45,0,0,-0.45,146,-204)"
         style="fill:#000000;stroke:none"
         r="10"
         id="circle236" />
      <circle
         cy="0"
         cx="0"
         transform="matrix(0.45,0,0,-0.45,157,-215)"
         style="fill:#000000;stroke:none"
         r="10"
         id="circle238" />
      <circle
         cy="0"
         cx="0"
         transform="matrix(0.45,0,0,-0.45,168,-204)"
         style="fill:#000000;stroke:none"
         r="10"
         id="circle240" />
      <circle
         cy="0"
         cx="0"
         transform="matrix(0.45,0,0,-0.45,58,-182)"
         style="fill:#000000;stroke:none"
         r="10"
         id="circle242" />
      <circle
         cy="0"
         cx="0"
         transform="matrix(0.45,0,0,-0.45,69,-193)"
         style="fill:#000000;stroke:none"
         r="10"
         id="circle244" />
      <circle
         cy="0"
         cx="0"
         transform="matrix(0.45,0,0,-0.45,80,-182)"
         style="fill:#000000;stroke:none"
         r="10"
         id="circle246" />
      <circle
         cy="0"
         cx="0"
         transform="matrix(0.45,0,0,-0.45,91,-193)"
         style="fill:#000000;stroke:none"
         r="10"
         id="circle248" />
      <circle
         cy="0"
         cx="0"
         transform="matrix(0.45,0,0,-0.45,102,-182)"
         style="fill:#000000;stroke:none"
         r="10"
         id="circle250" />
      <circle
         cy="0"
         cx="0"
         transform="matrix(0.45,0,0,-0.45,113,-193)"
         style="fill:#000000;stroke:none"
         r="10"
         id="circle252" />
      <circle
         cy="0"
         cx="0"
         transform="matrix(0.45,0,0,-0.45,124,-182)"
         style="fill:#000000;stroke:none"
         r="10"
         id="circle254" />
      <circle
         cy="0"
         cx="0"
         transform="matrix(0.45,0,0,-0.45,135,-193)"
         style="fill:#000000;stroke:none"
         r="10"
         id="circle256" />
      <circle
         cy="0"
         cx="0"
         transform="matrix(0.45,0,0,-0.45,146,-182)"
         style="fill:#000000;stroke:none"
         r="10"
         id="circle258" />
      <circle
         cy="0"
         cx="0"
         transform="matrix(0.45,0,0,-0.45,157,-193)"
         style="fill:#000000;stroke:none"
         r="10"
         id="circle260" />
      <circle
         cy="0"
         cx="0"
         transform="matrix(0.45,0,0,-0.45,168,-182)"
         style="fill:#000000;stroke:none"
         r="10"
         id="circle262" />
    </g>
  </g>
</svg>
